<svg width="379" height="239" viewBox="0 0 379 239" fill="none" xmlns="http://www.w3.org/2000/svg">
<g clip-path="url(#clip0_1_1425)">
<path d="M93.4425 7.95315C95.5886 7.95315 97.3284 6.17278 97.3284 3.97658C97.3284 1.78037 95.5886 0 93.4425 0C91.2963 0 89.5565 1.78037 89.5565 3.97658C89.5565 6.17278 91.2963 7.95315 93.4425 7.95315Z" fill="#3F3D56"/>
<path d="M106.867 7.95315C109.013 7.95315 110.753 6.17278 110.753 3.97658C110.753 1.78037 109.013 0 106.867 0C104.721 0 102.981 1.78037 102.981 3.97658C102.981 6.17278 104.721 7.95315 106.867 7.95315Z" fill="#3F3D56"/>
<path d="M120.291 7.95315C122.437 7.95315 124.177 6.17278 124.177 3.97658C124.177 1.78037 122.437 0 120.291 0C118.145 0 116.405 1.78037 116.405 3.97658C116.405 6.17278 118.145 7.95315 120.291 7.95315Z" fill="#3F3D56"/>
<path d="M135.598 7.11953C135.479 7.11953 135.36 7.07326 135.27 6.98118L132.648 4.2981C132.473 4.11932 132.473 3.83362 132.648 3.65484L135.27 0.97199C135.447 0.790513 135.739 0.787592 135.919 0.964805C136.101 1.14246 136.104 1.43377 135.927 1.61525L133.619 3.97647L135.927 6.33792C136.104 6.5194 136.101 6.81071 135.919 6.98836C135.83 7.07596 135.714 7.11953 135.598 7.11953V7.11953Z" fill="#3F3D56"/>
<path d="M140.004 7.11953C139.888 7.11953 139.772 7.07596 139.683 6.98837C139.501 6.81071 139.498 6.51963 139.676 6.33792L141.983 3.97647L139.676 1.61525C139.498 1.43377 139.501 1.14247 139.683 0.964806C139.864 0.786922 140.155 0.790294 140.333 0.971991L142.954 3.65484C143.129 3.83363 143.129 4.11932 142.954 4.2981L140.333 6.98118C140.243 7.07327 140.123 7.11953 140.004 7.11953V7.11953Z" fill="#3F3D56"/>
<path d="M277.174 0.460388H272.299C271.743 0.460388 271.293 0.911161 271.293 1.46775V6.35276C271.293 6.90934 271.743 7.36012 272.299 7.36012H277.174C277.73 7.36012 278.185 6.90934 278.185 6.35276V1.46775C278.185 0.911161 277.73 0.460388 277.174 0.460388V0.460388Z" fill="#3F3D56"/>
<path d="M265.227 0.460388H260.351C259.795 0.460388 259.345 0.911161 259.345 1.46775V6.35276C259.345 6.90934 259.795 7.36012 260.351 7.36012H265.227C265.783 7.36012 266.238 6.90934 266.238 6.35276V1.46775C266.238 0.911161 265.783 0.460388 265.227 0.460388V0.460388Z" fill="#3F3D56"/>
<path d="M288.432 0.690399H283.557C283.001 0.690399 282.551 1.14117 282.551 1.69776V6.58277C282.551 7.13935 283.001 7.59013 283.557 7.59013H288.432C288.989 7.59013 289.443 7.13935 289.443 6.58277V1.69776C289.443 1.14117 288.989 0.690399 288.432 0.690399V0.690399Z" fill="#3F3D56"/>
<path d="M214.946 2.54871H175.974C175.294 2.54871 174.747 3.10069 174.747 3.77688C174.747 4.45306 175.294 5.00502 175.974 5.00502H214.946C215.621 5.00502 216.173 4.45304 216.173 3.77688C216.173 3.10072 215.621 2.54871 214.946 2.54871V2.54871Z" fill="#3F3D56"/>
<path d="M296.405 19.2729H82.595C82.1365 19.2631 81.7728 18.8831 81.7826 18.4241C81.7921 17.979 82.1503 17.6204 82.595 17.6109H296.405C296.863 17.6207 297.227 18.0007 297.217 18.4597C297.208 18.9048 296.85 19.2634 296.405 19.2729Z" fill="#CACACA"/>
<path d="M261.947 31.0177H246.129C244.941 31.0177 243.978 31.9819 243.978 33.1712V33.1712C243.978 34.3606 244.941 35.3247 246.129 35.3247H261.947C263.135 35.3247 264.099 34.3606 264.099 33.1712C264.099 31.9819 263.135 31.0177 261.947 31.0177Z" fill="#0288D1"/>
<path d="M235.91 39.6317H272.166C273.354 39.6317 274.317 40.5959 274.317 41.7852C274.317 42.9745 273.354 43.9387 272.166 43.9387H235.91C234.722 43.9387 233.759 42.9745 233.759 41.7852C233.759 40.5959 234.722 39.6317 235.91 39.6317Z" fill="#E6E6E6"/>
<path d="M272.166 48.2457H235.91C234.722 48.2457 233.759 49.2098 233.759 50.3992V50.3992C233.759 51.5885 234.722 52.5527 235.91 52.5527H272.166C273.354 52.5527 274.317 51.5885 274.317 50.3992C274.317 49.2098 273.354 48.2457 272.166 48.2457Z" fill="#E6E6E6"/>
<path d="M89.0963 147.883H79.1103C78.842 147.883 77.3637 147.1 77.3637 146.134V140.582C77.316 136.381 91.0522 136.107 91.104 140.582V146.134C91.104 147.1 90.0609 147.883 89.0963 147.883Z" fill="#E6E6E6"/>
<path d="M89.6131 136.818C89.1286 136.644 88.6142 136.57 88.1006 136.601C88.238 136.555 88.3642 136.481 88.4709 136.383C88.3771 136.38 88.2838 136.367 88.1922 136.346C88.0914 136.327 87.9964 136.284 87.9151 136.222C87.8333 136.157 87.7896 136.056 87.7989 135.952C87.8175 135.825 87.9361 135.72 87.9239 135.593C87.91 135.446 87.7412 135.375 87.6508 135.259C87.5377 135.079 87.5571 134.846 87.6985 134.688C87.7843 134.588 87.8894 134.506 88.0074 134.447C87.8081 134.396 87.5987 134.399 87.4009 134.456C87.6129 134.292 87.707 134.017 87.6405 133.757C87.5286 133.434 87.2629 133.187 86.932 133.1C86.6057 133.018 86.2679 132.991 85.9325 133.019C86.2176 132.932 86.1746 132.485 85.9567 132.281C85.7389 132.077 85.4273 131.992 85.2218 131.776C85.0163 131.56 85.033 131.098 85.329 131.062L85.2926 130.956C84.7031 130.736 84.0467 131.036 83.8266 131.626C83.8077 131.676 83.7925 131.728 83.781 131.781C83.7267 132.119 83.8278 132.493 83.6582 132.791C83.4421 133.17 82.9174 133.213 82.4831 133.171C82.0568 133.062 81.6045 133.123 81.223 133.343C80.9076 133.606 80.8649 134.075 81.1277 134.391C81.2735 134.566 81.4915 134.665 81.7193 134.659C81.4335 134.661 81.1491 134.698 80.8727 134.771L81.1389 134.874C81.1982 134.892 81.2529 134.923 81.2993 134.964C81.346 135.007 81.3604 135.075 81.3351 135.133C81.2925 135.211 81.1825 135.208 81.0953 135.195L80.5164 135.108C80.6316 135.146 80.6938 135.271 80.6553 135.386C80.6169 135.501 80.4924 135.564 80.3773 135.525C80.3477 135.515 80.3206 135.499 80.2978 135.478C80.3572 135.548 80.405 135.626 80.4393 135.711C80.4733 135.798 80.4633 135.895 80.4124 135.973C80.2948 136.081 80.1215 136.102 79.9813 136.025C79.9342 136.007 79.8868 135.986 79.839 135.967C79.84 135.984 79.8413 136 79.8432 136.017C79.8752 136.24 79.9991 136.439 80.1848 136.566C79.9223 136.596 79.6807 136.724 79.507 136.923C79.2056 137.298 79.1875 137.826 79.4624 138.221C79.1703 138.092 78.8502 138.038 78.5321 138.067C78.2051 138.107 77.9601 138.386 77.9621 138.716C78.0148 139.12 78.5145 139.267 78.9184 139.317C82.0944 139.709 85.3063 139.708 88.4822 139.316C88.9137 139.287 89.3362 139.179 89.7292 138.999C90.1266 138.81 90.4002 138.432 90.4541 137.995C90.437 137.468 90.1052 137.004 89.6131 136.818V136.818Z" fill="#0288D1"/>
<path d="M91.9705 141.497C91.8981 141.183 91.6178 140.961 91.2955 140.962C90.9885 140.97 90.7142 141.19 90.4128 141.142C90.1625 141.102 89.9659 140.883 89.7141 140.917C89.4836 140.947 89.3597 141.173 89.1875 141.294H88.7459C88.574 141.159 88.4895 140.884 88.2511 140.807C87.892 140.691 87.6039 141.097 87.2277 141.169C87.01 141.193 86.79 141.151 86.5965 141.048C86.4071 140.945 86.2014 140.875 85.9885 140.842C85.7972 140.813 85.6065 140.897 85.4983 141.057C85.51 140.943 85.3609 140.83 85.2096 140.823C85.0406 140.829 84.8762 140.88 84.7329 140.97C84.5892 141.06 84.4229 141.107 84.2533 141.107C83.8775 141.074 83.6933 140.635 83.3154 140.63C82.8398 140.624 82.6496 141.302 82.1792 141.244C81.9347 141.214 81.8027 140.992 81.5846 140.897C81.3532 140.826 81.1061 140.823 80.8734 140.89L79.761 141.099C79.435 141.189 79.0911 141.192 78.7633 141.108C78.5247 141.022 78.293 140.835 78.047 140.906C77.8327 140.968 77.728 141.208 77.5011 141.221C77.3562 141.202 77.2165 141.155 77.0907 141.08C76.8502 140.995 76.582 141.063 76.4107 141.252C76.2862 141.76 76.266 142.288 76.3514 142.804C76.348 142.913 76.3567 143.024 76.3773 143.132L77.4962 147.613C77.6277 148.301 77.9672 148.798 78.6664 148.798H89.5404C90.2396 148.798 90.8402 148.301 90.9717 147.613L92.0905 143.132C92.0927 143.12 92.0942 143.108 92.0961 143.097C92.1226 142.56 92.0804 142.023 91.9705 141.497H91.9705Z" fill="#CCCCCC"/>
<path opacity="0.2" d="M78.6753 141.16L78.8927 143.989C78.9652 144.932 78.8579 145.862 78.9304 146.805C78.9712 147.336 79.1917 147.88 79.2325 148.411C79.2373 148.474 79.3353 148.474 79.3305 148.411L79.113 145.582L78.8956 142.753L78.7732 141.16C78.7684 141.098 78.6704 141.097 78.6753 141.16L78.6753 141.16Z" fill="black"/>
<path opacity="0.2" d="M80.5637 141.272L80.6484 144.06L80.7331 146.847L80.7807 148.412C80.7826 148.475 80.8805 148.475 80.8786 148.412L80.7939 145.625L80.7092 142.837L80.6616 141.272C80.6597 141.209 80.5618 141.209 80.5637 141.272Z" fill="black"/>
<path opacity="0.2" d="M82.3932 141.439L82.3675 144.133L82.3418 146.811L82.3273 148.33C82.3283 148.357 82.3509 148.378 82.378 148.377C82.4037 148.376 82.4244 148.355 82.4252 148.33L82.451 145.635L82.4766 142.958L82.4911 141.439C82.4902 141.412 82.4675 141.391 82.4405 141.392C82.4148 141.393 82.3941 141.414 82.3932 141.439Z" fill="black"/>
<path opacity="0.2" d="M83.7753 141.357L83.8289 144.084L83.8822 146.795L83.9123 148.33C83.9133 148.357 83.9359 148.379 83.963 148.378C83.9887 148.377 84.0094 148.356 84.0102 148.33L83.9567 145.603L83.9034 142.892L83.8732 141.357C83.8723 141.33 83.8496 141.309 83.8226 141.31C83.7969 141.31 83.7762 141.331 83.7753 141.357V141.357Z" fill="black"/>
<path opacity="0.2" d="M85.7896 141.245L85.8508 144.045L85.9121 146.845L85.9464 148.412C85.9473 148.439 85.97 148.461 85.997 148.46C86.0228 148.459 86.0434 148.438 86.0443 148.412L85.983 145.612L85.9218 142.812L85.8875 141.245C85.8863 141.218 85.8635 141.197 85.8365 141.198C85.811 141.199 85.7906 141.219 85.7896 141.245Z" fill="black"/>
<path opacity="0.2" d="M87.4616 141.33L87.6752 144.151L87.8881 146.964L88.0081 148.55C88.0128 148.612 88.1108 148.613 88.106 148.55L87.8924 145.728L87.6795 142.915L87.5595 141.33C87.5548 141.267 87.4569 141.267 87.4616 141.33V141.33Z" fill="black"/>
<path opacity="0.2" d="M89.3196 141.659L89.4484 144.24C89.4913 145.1 89.2731 145.961 89.3161 146.821L89.3884 148.271C89.3915 148.334 89.4894 148.334 89.4863 148.271C89.4433 147.41 89.6615 146.55 89.6186 145.69L89.4898 143.108L89.4176 141.659C89.4144 141.596 89.3165 141.595 89.3196 141.659Z" fill="black"/>
<path d="M83.6464 134.586C83.8537 134.586 84.0217 134.469 84.0217 134.325C84.0217 134.18 83.8537 134.063 83.6464 134.063C83.4391 134.063 83.2711 134.18 83.2711 134.325C83.2711 134.469 83.4391 134.586 83.6464 134.586Z" fill="#E6E6E6"/>
<path d="M86.029 135.174C86.2362 135.174 86.4043 135.057 86.4043 134.913C86.4043 134.768 86.2362 134.651 86.029 134.651C85.8217 134.651 85.6536 134.768 85.6536 134.913C85.6536 135.057 85.8217 135.174 86.029 135.174Z" fill="#3F3D56"/>
<path d="M82.6999 136.448C82.9072 136.448 83.0753 136.331 83.0753 136.187C83.0753 136.043 82.9072 135.926 82.6999 135.926C82.4927 135.926 82.3246 136.043 82.3246 136.187C82.3246 136.331 82.4927 136.448 82.6999 136.448Z" fill="#FF6584"/>
<path d="M85.8036 136.793C85.9346 136.793 86.0408 136.719 86.0408 136.628C86.0408 136.536 85.9346 136.462 85.8036 136.462C85.6726 136.462 85.5664 136.536 85.5664 136.628C85.5664 136.719 85.6726 136.793 85.8036 136.793Z" fill="#E6E6E6"/>
<path d="M87.3094 137.164C87.4404 137.164 87.5466 137.09 87.5466 136.999C87.5466 136.908 87.4404 136.834 87.3094 136.834C87.1784 136.834 87.0722 136.908 87.0722 136.999C87.0722 137.09 87.1784 137.164 87.3094 137.164Z" fill="#3F3D56"/>
<path d="M85.2055 137.97C85.3365 137.97 85.4427 137.896 85.4427 137.804C85.4427 137.713 85.3365 137.639 85.2055 137.639C85.0745 137.639 84.9683 137.713 84.9683 137.804C84.9683 137.896 85.0745 137.97 85.2055 137.97Z" fill="#FF6584"/>
<path d="M88.0229 137.707C88.1539 137.707 88.2601 137.634 88.2601 137.542C88.2601 137.451 88.1539 137.377 88.0229 137.377C87.8919 137.377 87.7857 137.451 87.7857 137.542C87.7857 137.634 87.8919 137.707 88.0229 137.707Z" fill="#E6E6E6"/>
<path d="M89.5287 138.079C89.6597 138.079 89.7659 138.005 89.7659 137.914C89.7659 137.823 89.6597 137.749 89.5287 137.749C89.3977 137.749 89.2915 137.823 89.2915 137.914C89.2915 138.005 89.3977 138.079 89.5287 138.079Z" fill="#3F3D56"/>
<path d="M87.4248 138.884C87.5558 138.884 87.662 138.81 87.662 138.719C87.662 138.628 87.5558 138.554 87.4248 138.554C87.2938 138.554 87.1876 138.628 87.1876 138.719C87.1876 138.81 87.2938 138.884 87.4248 138.884Z" fill="#FF6584"/>
<path d="M81.9085 136.836C81.9264 136.706 81.8677 136.591 81.7774 136.578C81.6871 136.566 81.5994 136.661 81.5816 136.791C81.5637 136.921 81.6224 137.036 81.7126 137.049C81.8029 137.061 81.8906 136.966 81.9085 136.836Z" fill="#E6E6E6"/>
<path d="M81.3351 138.279C81.353 138.149 81.2943 138.033 81.2041 138.021C81.1138 138.008 81.0261 138.104 81.0082 138.234C80.9903 138.363 81.049 138.479 81.1393 138.491C81.2296 138.504 81.3173 138.409 81.3351 138.279Z" fill="#3F3D56"/>
<path d="M80.8254 136.082C80.8433 135.952 80.7846 135.837 80.6943 135.825C80.6041 135.812 80.5164 135.907 80.4985 136.037C80.4806 136.167 80.5393 136.283 80.6296 136.295C80.7199 136.308 80.8076 136.212 80.8254 136.082Z" fill="#FF6584"/>
<path d="M84.4868 136.052C84.5047 135.922 84.446 135.807 84.3557 135.794C84.2654 135.782 84.1778 135.877 84.1599 136.007C84.142 136.137 84.2007 136.252 84.291 136.265C84.3813 136.277 84.4689 136.182 84.4868 136.052Z" fill="#E6E6E6"/>
<path d="M83.9135 137.495C83.9314 137.365 83.8727 137.249 83.7824 137.237C83.6921 137.224 83.6044 137.32 83.5866 137.449C83.5687 137.579 83.6274 137.695 83.7177 137.707C83.8079 137.72 83.8956 137.624 83.9135 137.495Z" fill="#3F3D56"/>
<path d="M83.4038 135.298C83.4216 135.168 83.363 135.053 83.2727 135.041C83.1824 135.028 83.0947 135.123 83.0768 135.253C83.059 135.383 83.1176 135.499 83.2079 135.511C83.2982 135.523 83.3859 135.428 83.4038 135.298Z" fill="#FF6584"/>
<path d="M85.1855 134.456C85.2034 134.326 85.1447 134.21 85.0544 134.198C84.9641 134.185 84.8764 134.281 84.8585 134.41C84.8407 134.54 84.8994 134.656 84.9896 134.668C85.0799 134.681 85.1676 134.585 85.1855 134.456Z" fill="#3F3D56"/>
<path d="M84.6766 132.26C84.6945 132.13 84.6358 132.015 84.5455 132.002C84.4552 131.99 84.3675 132.085 84.3497 132.215C84.3318 132.345 84.3905 132.46 84.4808 132.473C84.571 132.485 84.6587 132.39 84.6766 132.26Z" fill="#FF6584"/>
<path d="M176.01 106.48C177.928 106.48 179.482 105.397 179.482 104.062C179.482 102.726 177.928 101.644 176.01 101.644C174.092 101.644 172.537 102.726 172.537 104.062C172.537 105.397 174.092 106.48 176.01 106.48Z" fill="#E6E6E6"/>
<path d="M198.052 111.92C199.97 111.92 201.525 110.838 201.525 109.502C201.525 108.167 199.97 107.084 198.052 107.084C196.134 107.084 194.58 108.167 194.58 109.502C194.58 110.838 196.134 111.92 198.052 111.92Z" fill="#3F3D56"/>
<path d="M167.253 123.708C169.171 123.708 170.726 122.626 170.726 121.29C170.726 119.955 169.171 118.872 167.253 118.872C165.336 118.872 163.781 119.955 163.781 121.29C163.781 122.626 165.336 123.708 167.253 123.708Z" fill="#FF6584"/>
<path d="M216.5 135.358C217.712 135.358 218.695 134.674 218.695 133.83C218.695 132.986 217.712 132.302 216.5 132.302C215.288 132.302 214.305 132.986 214.305 133.83C214.305 134.674 215.288 135.358 216.5 135.358Z" fill="#E6E6E6"/>
<path d="M230.431 138.797C231.643 138.797 232.625 138.112 232.625 137.268C232.625 136.424 231.643 135.74 230.431 135.74C229.219 135.74 228.236 136.424 228.236 137.268C228.236 138.112 229.219 138.797 230.431 138.797Z" fill="#3F3D56"/>
<path d="M159.93 127.297C160.095 126.095 159.552 125.027 158.717 124.912C157.882 124.797 157.071 125.678 156.905 126.88C156.74 128.081 157.283 129.149 158.118 129.264C158.953 129.38 159.764 128.499 159.93 127.297Z" fill="#E6E6E6"/>
<path d="M154.627 140.642C154.792 139.44 154.249 138.373 153.414 138.257C152.579 138.142 151.767 139.023 151.602 140.225C151.437 141.427 151.98 142.495 152.815 142.61C153.65 142.725 154.461 141.844 154.627 140.642Z" fill="#3F3D56"/>
<path d="M149.911 120.323C150.076 119.121 149.533 118.054 148.698 117.938C147.863 117.823 147.052 118.704 146.886 119.906C146.721 121.108 147.264 122.176 148.099 122.291C148.934 122.406 149.745 121.525 149.911 120.323Z" fill="#FF6584"/>
<path d="M183.785 120.043C183.95 118.841 183.407 117.774 182.572 117.658C181.737 117.543 180.926 118.424 180.76 119.626C180.595 120.828 181.138 121.896 181.973 122.011C182.808 122.126 183.62 121.245 183.785 120.043Z" fill="#E6E6E6"/>
<path d="M173.765 113.069C173.93 111.867 173.387 110.8 172.552 110.684C171.717 110.569 170.906 111.45 170.74 112.652C170.575 113.854 171.118 114.922 171.953 115.037C172.788 115.152 173.599 114.271 173.765 113.069Z" fill="#FF6584"/>
<path d="M266.508 230.217C267.11 230.245 267.62 229.779 267.648 229.176C267.663 228.855 267.535 228.543 267.299 228.324C267.271 228.215 267.252 228.136 267.224 228.027C267.817 226.519 269.519 225.778 271.025 226.371C271.764 226.663 272.353 227.242 272.658 227.976C273.951 231.005 275.625 234.142 274.792 237.479C280.29 225.816 278.42 211.309 270.296 201.335C267.977 200.102 266.317 197.91 265.756 195.342C266.868 195.719 268.253 194.814 267.418 193.642C267.056 193.194 266.69 192.75 266.328 192.302C270.549 187.802 275.58 194.875 270.933 200.95C272.453 202.857 273.77 204.919 274.861 207.101C274.609 204.784 274.91 202.44 275.74 200.263C276.58 198.233 278.155 196.524 279.543 194.769C280.568 193.453 282.465 193.218 283.78 194.245C284.432 194.754 284.846 195.508 284.928 196.331C283.371 196.843 283.169 199.094 284.949 199.402C284.398 204.527 281.269 209.015 276.652 211.3C278.328 216.006 278.982 221.015 278.571 225.993C279.372 220.175 285.612 218.763 289.973 216.45C290.762 215.943 291.813 216.173 292.32 216.964C292.549 217.322 292.636 217.753 292.563 218.173C291.961 218.418 291.385 218.722 290.843 219.081C290.164 219.538 289.983 220.461 290.44 221.141C290.689 221.511 291.089 221.749 291.532 221.791C289.334 227.237 283.651 230.894 277.814 230.873C277.253 233.313 276.44 235.688 275.389 237.96H266.725C266.694 237.864 266.666 237.764 266.638 237.668C267.44 237.719 268.245 237.671 269.035 237.525C266.914 235.011 265.273 233.728 266.508 230.217L266.508 230.217V230.217Z" fill="#F2F2F2"/>
<path d="M96.8755 230.087C96.2736 230.115 95.7632 229.649 95.7356 229.047C95.7208 228.725 95.8486 228.413 96.0848 228.195L96.1596 227.897C95.5666 226.389 93.8648 225.648 92.3585 226.242C91.6195 226.533 91.0302 227.112 90.7255 227.846C89.4324 230.875 87.759 234.012 88.5912 237.349C83.0939 225.686 84.9634 211.179 93.0876 201.205C95.4065 199.972 97.0665 197.78 97.6273 195.212C96.5159 195.589 95.1302 194.684 95.9658 193.512C96.328 193.065 96.6937 192.62 97.0559 192.172C92.8342 187.672 87.804 194.745 92.4509 200.82C90.9308 202.728 89.6141 204.789 88.5222 206.971C88.7743 204.654 88.4734 202.311 87.6441 200.133C86.8037 198.103 85.2284 196.394 83.8411 194.639C82.8155 193.323 80.9182 193.089 79.6035 194.115C78.952 194.624 78.5373 195.378 78.4559 196.201C80.0126 196.713 80.2148 198.964 78.4342 199.272C78.9852 204.397 82.1148 208.885 86.7312 211.17C85.0559 215.876 84.4017 220.885 84.8122 225.863C84.0114 220.045 77.7721 218.633 73.4111 216.32C72.6213 215.814 71.5705 216.043 71.0641 216.834C70.8346 217.192 70.7476 217.624 70.8203 218.043C71.4222 218.288 71.9983 218.592 72.5402 218.951C73.2198 219.409 73.4004 220.331 72.9434 221.011C72.6951 221.381 72.2942 221.619 71.8512 221.661C74.0495 227.107 79.7328 230.764 85.5699 230.743C86.1308 233.183 86.9436 235.559 87.995 237.83H96.6585C96.6895 237.734 96.7175 237.635 96.7454 237.538C95.9435 237.589 95.1384 237.541 94.3482 237.395C96.4698 234.881 98.1106 233.598 96.8758 230.088L96.8755 230.087H96.8755Z" fill="#F2F2F2"/>
<path d="M118.581 128.561L117.66 123.214L131.669 116.882L134.695 111.52C134.402 110.11 135.306 108.73 136.715 108.437C138.123 108.144 139.502 109.049 139.795 110.458C140.024 111.562 139.518 112.689 138.541 113.25L133.564 120.953L118.581 128.561V128.561Z" fill="#A0616A"/>
<path d="M114.323 124.19L120.631 120.964L122.302 127.242L117.919 130.493L114.323 124.19Z" fill="#3F3D56"/>
<path d="M100.165 230.889H103.98L105.795 216.16H100.165L100.165 230.889Z" fill="#A0616A"/>
<path d="M105.249 231.233V228.644L104.247 228.705L100.164 228.947L99.2195 229.005L98.4972 237.675L98.4586 238.14H101.167L101.254 237.678L101.648 235.58L102.663 237.678L102.886 238.14H110.067C110.956 238.134 111.675 237.413 111.679 236.523C111.982 235.106 106.01 232.043 105.249 231.233V231.233Z" fill="#2F2E41"/>
<path d="M54.9766 217.141L58.0953 219.34L68.0526 208.345L63.4496 205.099L54.9766 217.141Z" fill="#A0616A"/>
<path d="M59.0465 220.072L60.5359 217.956L59.6808 217.428L56.2042 215.272L55.3984 214.775L49.8199 221.446L49.5208 221.804L51.7351 223.365L52.0719 223.038L53.6005 221.55L53.2238 223.851L53.1402 224.356L59.0107 228.496C59.741 229.004 60.7438 228.829 61.2592 228.104C62.3222 227.12 59.2025 221.173 59.0465 220.072H59.0465Z" fill="#2F2E41"/>
<path d="M106.064 135.566L101.154 133.269L91.362 145.13L85.3978 146.64C84.1162 145.986 82.5478 146.496 81.8946 147.779C81.2414 149.062 81.7508 150.632 83.0323 151.286C84.0359 151.798 85.2545 151.606 86.0527 150.811L94.7862 148.032L106.064 135.566V135.566Z" fill="#A0616A"/>
<path d="M101.113 154.673C101.113 154.673 93.0573 159.924 95.1876 163.414C95.261 163.534 78.0275 187.484 78.0275 187.484L58.7027 208.339L65.3456 214.384C65.3456 214.384 83.7042 195.248 86.784 192.018C89.8638 188.787 103.316 172.627 103.316 172.627L103.811 192.599L98.6609 220.274L106.35 219.786L113.834 192.021L116.596 160.57L101.113 154.673L101.113 154.673Z" fill="#2F2E41"/>
<path d="M106.852 123.157L103.464 125.727L99.6028 133.977L103.316 139.025C103.316 139.025 106.439 144.443 101.44 149.691C96.4405 154.938 92.6015 160.542 96.603 160.342C100.604 160.142 116.811 168.393 116.918 161.633C117.024 154.873 117.24 149.691 117.24 149.691L121.489 138.903C121.489 138.903 124.02 132.467 122.243 130.541C120.466 128.615 118.086 126.153 118.086 126.153L113.759 121.821H109.851L106.852 123.157V123.157Z" fill="#3F3D56"/>
<path d="M113.176 107.307C120.776 111.636 114.537 123.058 106.795 118.991C99.1951 114.662 105.434 103.239 113.176 107.307V107.307Z" fill="#A0616A"/>
<path d="M117.24 109.707C116.708 110.4 115.595 110.075 113.416 110.57C113.421 109.831 113.336 109.094 113.162 108.375C113 109.265 112.645 110.108 112.121 110.845C110.229 111.055 112.549 116.809 111.58 121.039C110.332 112.115 107.707 114.453 109.033 116.223C109.882 117.356 109.316 120.755 106.769 119.056C102.566 121.055 96.5807 111.123 103.215 106.466C103.096 103.948 105.895 103.55 107.618 104.324C111.8 101.206 116.578 105.202 117.24 109.707V109.707Z" fill="#2F2E41"/>
<path d="M97.7396 103.195C96.0476 113.609 86.9781 101.28 82.7137 111.528C81.373 115.24 83.6734 117.895 85.1285 120.975C85.4606 123.507 82.1704 124.792 81.8258 127.122C81.7299 132.465 90.3407 132.138 92.7479 128.767C95.2214 125.238 92.2677 120.504 93.7544 116.717C95.844 111.458 104.342 111.419 105.082 105.301C103.648 103.258 99.7932 100.917 97.7396 103.195Z" fill="#2F2E41"/>
<path d="M104.594 104.213C104.539 104.236 104.484 104.26 104.434 104.286H104.431C104.385 104.309 104.338 104.332 104.291 104.359C104.285 104.362 104.283 104.365 104.277 104.367C104.216 104.309 104.154 104.251 104.09 104.192C104.074 104.287 104.078 104.385 104.102 104.478L104.111 104.513C104.169 104.575 104.23 104.633 104.294 104.694C104.352 104.65 104.408 104.604 104.466 104.56C104.501 104.531 104.536 104.502 104.574 104.472C104.58 104.397 104.588 104.309 104.597 104.213L104.594 104.213H104.594ZM106.348 100.97C105.049 100.672 104.629 102.373 104.504 103.192C104.032 100.217 102.068 101.154 102.747 103.183C102.964 103.784 103.304 104.333 103.746 104.793C103.808 104.863 103.875 104.933 103.945 105.003C103.866 105.412 104.262 105.307 104.798 104.93C105.194 104.649 105.56 104.327 105.891 103.971C106.96 102.848 107.793 101.346 106.348 100.97H106.348ZM106.389 102.644C105.988 103.161 105.538 103.639 105.046 104.07C104.891 104.21 104.734 104.344 104.574 104.473C104.571 104.499 104.571 104.522 104.568 104.542C104.557 104.571 104.543 104.598 104.527 104.624C104.364 104.919 104.181 104.758 104.111 104.513C104.105 104.505 104.096 104.496 104.09 104.487C103.857 104.246 103.655 103.978 103.487 103.688C102.284 101.6 104.221 100.18 104.125 104.079C104.107 104.115 104.096 104.153 104.09 104.193C104.074 104.288 104.078 104.385 104.102 104.478L104.111 104.513C104.169 104.575 104.23 104.633 104.294 104.694C104.352 104.65 104.408 104.604 104.466 104.56C104.501 104.531 104.536 104.502 104.574 104.473C104.58 104.397 104.588 104.309 104.597 104.213V104.21C104.673 103.428 104.88 102.023 105.261 101.641C106.101 100.996 107.187 101.693 106.389 102.644L106.389 102.644H106.389ZM104.594 104.213C104.539 104.236 104.484 104.26 104.434 104.286H104.431C104.385 104.309 104.338 104.332 104.291 104.359C104.285 104.362 104.283 104.365 104.277 104.368C104.216 104.309 104.154 104.251 104.09 104.192C104.074 104.288 104.078 104.385 104.102 104.478L104.111 104.513C104.169 104.575 104.23 104.633 104.294 104.694C104.352 104.65 104.408 104.604 104.466 104.56C104.501 104.531 104.536 104.502 104.574 104.472C104.58 104.397 104.588 104.309 104.597 104.213L104.594 104.213H104.594Z" fill="#2F2E41"/>
<path d="M264.642 231.501L260.911 232.35L255.861 218.349L261.368 217.095L264.642 231.501Z" fill="#FFB6B6"/>
<path d="M265.659 235.366L254.186 237.98L254.153 237.834C253.592 235.366 255.136 232.909 257.603 232.347L257.603 232.347L259.337 230.278L263.609 230.979L264.61 230.751L265.659 235.366V235.366Z" fill="#2F2E41"/>
<path d="M313.294 224.14L310.072 226.206L300.581 214.746L305.337 211.698L313.294 224.14Z" fill="#FFB6B6"/>
<path d="M315.561 227.433L305.651 233.783L305.571 233.658C304.207 231.526 304.828 228.691 306.958 227.325L306.958 227.325L307.889 224.79L312.146 224.001L313.011 223.446L315.561 227.433V227.433Z" fill="#2F2E41"/>
<path d="M262.159 161.754L259.352 169.082L246.184 195.082L257.754 225.328L263.726 223.75L258.804 195.082L272.924 177.908L281.123 195.553L304.675 221.547L310.11 217.92L292.597 191.019L280.935 156.905L262.159 161.754Z" fill="#2F2E41"/>
<path d="M276.322 127.19L271.702 122.221L263.775 121.129L254.064 127.935L254.161 135.468L258.962 153.219C258.962 153.219 257.134 165.973 262.242 165.845C267.349 165.717 270.133 163.168 272.214 163.687C274.294 164.206 283.138 166.414 283.698 164.101C284.259 161.788 287.238 163.444 287.107 161.256C286.976 159.067 279.042 143.294 279.042 143.294L280.43 132.191C280.736 129.748 279.005 127.52 276.565 127.214C276.484 127.204 276.403 127.196 276.322 127.19L276.322 127.19V127.19Z" fill="#3F3D56"/>
<path d="M308.208 158.5C306.679 158.825 305.177 157.847 304.852 156.316C304.818 156.153 304.798 155.987 304.792 155.821L283.548 147.448L287.591 144.132L307.731 152.863C309.302 152.916 310.533 154.233 310.48 155.805C310.436 157.121 309.497 158.235 308.208 158.5V158.5Z" fill="#FFB6B6"/>
<path d="M278.118 128.111C278.118 128.111 274.499 128.083 274.054 132.207C273.61 136.331 281.198 146.789 282.371 148.512C282.738 149.051 284.316 149.665 286.31 150.253C287.205 150.517 288.185 150.776 289.176 151.021C289.75 151.163 290.006 152.115 290.574 152.246C291.139 152.376 292.015 151.684 292.546 151.8C295.069 152.348 297.063 152.714 297.063 152.714L301.779 149.496C299.4 145.979 294.848 144.541 289.692 143.681L278.118 128.111V128.111Z" fill="#3F3D56"/>
<path d="M224.866 108.961C225.104 110.507 226.55 111.568 228.094 111.33C228.259 111.304 228.421 111.264 228.579 111.21L243.924 128.134L245.59 123.175L230.302 107.411C229.696 105.96 228.029 105.274 226.579 105.88C225.366 106.388 224.658 107.661 224.866 108.961V108.961V108.961Z" fill="#FFB6B6"/>
<path d="M263.912 126.369C263.912 126.369 265.22 129.748 261.524 131.624C257.829 133.5 245.371 130.1 243.347 129.612C242.713 129.459 241.581 128.2 240.325 126.541C239.761 125.796 239.172 124.971 238.592 124.13C238.257 123.643 237.277 123.74 236.954 123.255C236.632 122.772 236.968 121.707 236.672 121.25C235.266 119.083 234.219 117.346 234.219 117.346L235.555 111.791C239.683 112.773 242.639 116.525 245.268 121.048L263.912 126.369V126.369Z" fill="#3F3D56"/>
<path d="M267.897 119.865C272.062 119.865 275.438 116.485 275.438 112.316C275.438 108.147 272.062 104.767 267.897 104.767C263.732 104.767 260.355 108.147 260.355 112.316C260.355 116.485 263.732 119.865 267.897 119.865Z" fill="#FFB6B6"/>
<path d="M276.505 107.994C275.716 106.721 274.268 106.014 272.78 106.176C272.375 103.394 269.792 101.467 267.012 101.872C265.979 102.023 265.017 102.489 264.257 103.206C263.804 102.887 263.217 102.828 262.71 103.051C262.213 103.277 261.781 103.625 261.453 104.061C259.766 106.167 259.372 109.032 260.429 111.516C260.252 110.874 260.895 110.27 261.544 110.126C262.193 109.982 262.874 110.118 263.533 110.024C264.377 109.904 265.135 109.414 265.98 109.304C266.697 109.257 267.416 109.35 268.098 109.576C268.779 109.803 269.497 109.899 270.214 109.861C270.925 109.776 271.841 112.475 271.829 114.375C271.827 114.735 271.901 115.198 272.253 115.274C272.686 115.368 272.936 114.77 273.349 114.607C273.743 114.494 274.157 114.714 274.284 115.105C274.389 115.493 274.301 115.908 274.047 116.219C273.793 116.523 273.492 116.785 273.156 116.993L273.326 117.134C273.658 117.486 274.193 117.552 274.601 117.293C274.99 117.029 275.305 116.67 275.516 116.249C276.312 115.018 276.88 113.654 277.195 112.221C277.506 110.775 277.26 109.265 276.505 107.994V107.994Z" fill="#2F2E41"/>
<path d="M190.257 105.279C190.422 104.077 189.879 103.009 189.044 102.894C188.209 102.778 187.397 103.659 187.232 104.861C187.067 106.063 187.61 107.131 188.445 107.246C189.28 107.361 190.091 106.48 190.257 105.279Z" fill="#3F3D56"/>
<path d="M313.664 156.843H303.678C303.41 156.843 301.931 156.06 301.931 155.095V149.542C301.884 145.342 315.62 145.067 315.672 149.542V155.095C315.672 156.06 314.629 156.843 313.664 156.843V156.843Z" fill="#E6E6E6"/>
<path d="M314.181 145.778C313.696 145.604 313.182 145.531 312.668 145.561C312.806 145.515 312.932 145.441 313.039 145.344C312.945 145.34 312.851 145.327 312.76 145.306C312.659 145.287 312.564 145.245 312.483 145.182C312.401 145.118 312.357 145.016 312.367 144.912C312.385 144.785 312.504 144.681 312.492 144.553C312.478 144.406 312.309 144.335 312.219 144.219C312.105 144.039 312.125 143.807 312.266 143.648C312.352 143.548 312.457 143.466 312.575 143.408C312.376 143.356 312.166 143.36 311.969 143.417C312.181 143.252 312.275 142.978 312.208 142.718C312.096 142.394 311.831 142.148 311.5 142.061C311.173 141.978 310.836 141.951 310.5 141.98C310.785 141.892 310.742 141.445 310.524 141.241C310.307 141.038 309.995 140.952 309.789 140.736C309.584 140.52 309.601 140.058 309.897 140.022L309.86 139.917C309.271 139.696 308.614 139.996 308.394 140.586C308.375 140.637 308.36 140.689 308.349 140.741C308.294 141.079 308.395 141.454 308.226 141.751C308.01 142.13 307.485 142.173 307.051 142.131C306.624 142.022 306.172 142.084 305.791 142.304C305.475 142.567 305.433 143.036 305.695 143.351C305.841 143.527 306.059 143.625 306.287 143.619C306.001 143.621 305.717 143.659 305.44 143.731L305.707 143.834C305.766 143.852 305.82 143.883 305.867 143.924C305.914 143.967 305.928 144.035 305.903 144.094C305.86 144.171 305.75 144.168 305.663 144.155L305.084 144.068C305.199 144.106 305.261 144.231 305.223 144.346C305.185 144.462 305.06 144.524 304.945 144.485C304.915 144.476 304.888 144.46 304.865 144.438C304.925 144.508 304.973 144.587 305.007 144.671C305.041 144.758 305.031 144.855 304.98 144.933C304.862 145.041 304.689 145.062 304.549 144.986C304.502 144.968 304.454 144.947 304.407 144.927C304.408 144.944 304.409 144.961 304.411 144.978C304.443 145.2 304.567 145.399 304.752 145.526C304.49 145.557 304.248 145.684 304.075 145.883C303.773 146.258 303.755 146.787 304.03 147.181C303.738 147.052 303.418 146.999 303.1 147.027C302.773 147.067 302.528 147.346 302.53 147.676C302.582 148.08 303.082 148.228 303.486 148.278C306.662 148.669 309.874 148.669 313.05 148.277C313.481 148.247 313.904 148.14 314.297 147.959C314.694 147.771 314.968 147.392 315.022 146.955C315.005 146.429 314.673 145.964 314.181 145.778V145.778Z" fill="#0288D1"/>
<path d="M316.538 150.458C316.466 150.143 316.185 149.921 315.863 149.923C315.556 149.931 315.282 150.15 314.98 150.102C314.73 150.062 314.534 149.844 314.282 149.877C314.051 149.907 313.927 150.133 313.755 150.254H313.314C313.142 150.119 313.057 149.844 312.819 149.767C312.46 149.652 312.172 150.057 311.795 150.129C311.578 150.153 311.358 150.111 311.164 150.008C310.975 149.905 310.769 149.836 310.556 149.802C310.365 149.774 310.174 149.857 310.066 150.018C310.078 149.903 309.929 149.79 309.777 149.783C309.608 149.789 309.444 149.84 309.301 149.93C309.157 150.02 308.991 150.068 308.821 150.067C308.445 150.035 308.261 149.595 307.883 149.59C307.407 149.584 307.217 150.263 306.747 150.205C306.502 150.175 306.37 149.952 306.152 149.857C305.921 149.786 305.674 149.784 305.441 149.85L304.329 150.059C304.003 150.149 303.659 150.152 303.331 150.069C303.092 149.982 302.861 149.795 302.615 149.866C302.4 149.928 302.296 150.169 302.069 150.181C301.924 150.163 301.784 150.115 301.658 150.041C301.418 149.955 301.15 150.023 300.978 150.212C300.854 150.72 300.834 151.248 300.919 151.764C300.916 151.874 300.924 151.984 300.945 152.092L302.064 156.574C302.195 157.261 302.535 157.758 303.234 157.758H314.108C314.807 157.758 315.408 157.261 315.539 156.574L316.658 152.092C316.66 152.08 316.662 152.069 316.664 152.057C316.69 151.521 316.648 150.983 316.538 150.458V150.458Z" fill="#CCCCCC"/>
<path opacity="0.2" d="M303.243 150.12L303.46 152.949C303.533 153.892 303.426 154.822 303.498 155.765C303.539 156.296 303.759 156.84 303.8 157.371C303.805 157.434 303.903 157.434 303.898 157.371L303.681 154.543L303.463 151.714L303.341 150.12C303.336 150.058 303.238 150.057 303.243 150.12Z" fill="black"/>
<path opacity="0.2" d="M305.131 150.232L305.216 153.02L305.301 155.808L305.348 157.373C305.35 157.436 305.448 157.436 305.446 157.373L305.362 154.585L305.277 151.797L305.229 150.232C305.227 150.169 305.129 150.169 305.131 150.232Z" fill="black"/>
<path opacity="0.2" d="M306.961 150.4L306.935 153.094L306.91 155.771L306.895 157.29C306.896 157.317 306.919 157.338 306.946 157.337C306.971 157.336 306.992 157.316 306.993 157.29L307.019 154.596L307.044 151.918L307.059 150.4C307.058 150.373 307.035 150.351 307.008 150.352C306.982 150.353 306.962 150.374 306.961 150.4Z" fill="black"/>
<path opacity="0.2" d="M308.343 150.317L308.397 153.044L308.45 155.755L308.48 157.291C308.481 157.318 308.504 157.339 308.531 157.338C308.556 157.337 308.577 157.316 308.578 157.291L308.524 154.563L308.471 151.852L308.441 150.317C308.44 150.29 308.417 150.269 308.39 150.27C308.365 150.271 308.344 150.291 308.343 150.317Z" fill="black"/>
<path opacity="0.2" d="M310.357 150.205L310.419 153.005L310.48 155.805L310.514 157.373C310.515 157.4 310.538 157.421 310.565 157.42C310.59 157.419 310.611 157.398 310.612 157.373L310.551 154.573L310.489 151.773L310.455 150.205C310.454 150.178 310.432 150.157 310.405 150.158C310.379 150.159 310.358 150.179 310.357 150.205Z" fill="black"/>
<path opacity="0.2" d="M312.029 150.29L312.243 153.111L312.456 155.925L312.576 157.51C312.581 157.572 312.679 157.573 312.674 157.51L312.46 154.689L312.247 151.876L312.127 150.29C312.123 150.228 312.025 150.227 312.029 150.29Z" fill="black"/>
<path opacity="0.2" d="M313.887 150.619L314.016 153.2C314.059 154.061 313.841 154.921 313.884 155.782L313.956 157.231C313.959 157.294 314.057 157.294 314.054 157.231C314.011 156.371 314.229 155.51 314.186 154.65L314.058 152.068L313.985 150.619C313.982 150.556 313.884 150.556 313.887 150.619Z" fill="black"/>
<path d="M308.214 143.546C308.421 143.546 308.589 143.429 308.589 143.285C308.589 143.141 308.421 143.024 308.214 143.024C308.007 143.024 307.839 143.141 307.839 143.285C307.839 143.429 308.007 143.546 308.214 143.546Z" fill="#E6E6E6"/>
<path d="M310.597 144.134C310.804 144.134 310.972 144.017 310.972 143.873C310.972 143.729 310.804 143.612 310.597 143.612C310.389 143.612 310.221 143.729 310.221 143.873C310.221 144.017 310.389 144.134 310.597 144.134Z" fill="#3F3D56"/>
<path d="M307.268 145.409C307.475 145.409 307.643 145.292 307.643 145.147C307.643 145.003 307.475 144.886 307.268 144.886C307.06 144.886 306.892 145.003 306.892 145.147C306.892 145.292 307.06 145.409 307.268 145.409Z" fill="#FF6584"/>
<path d="M310.371 145.753C310.502 145.753 310.609 145.679 310.609 145.588C310.609 145.497 310.502 145.423 310.371 145.423C310.24 145.423 310.134 145.497 310.134 145.588C310.134 145.679 310.24 145.753 310.371 145.753Z" fill="#E6E6E6"/>
<path d="M311.877 146.125C312.008 146.125 312.114 146.051 312.114 145.96C312.114 145.868 312.008 145.794 311.877 145.794C311.746 145.794 311.64 145.868 311.64 145.96C311.64 146.051 311.746 146.125 311.877 146.125Z" fill="#3F3D56"/>
<path d="M309.773 146.93C309.904 146.93 310.01 146.856 310.01 146.765C310.01 146.674 309.904 146.6 309.773 146.6C309.642 146.6 309.536 146.674 309.536 146.765C309.536 146.856 309.642 146.93 309.773 146.93Z" fill="#FF6584"/>
<path d="M312.591 146.668C312.722 146.668 312.828 146.594 312.828 146.503C312.828 146.411 312.722 146.337 312.591 146.337C312.46 146.337 312.353 146.411 312.353 146.503C312.353 146.594 312.46 146.668 312.591 146.668Z" fill="#E6E6E6"/>
<path d="M314.096 147.039C314.227 147.039 314.334 146.966 314.334 146.874C314.334 146.783 314.227 146.709 314.096 146.709C313.965 146.709 313.859 146.783 313.859 146.874C313.859 146.966 313.965 147.039 314.096 147.039Z" fill="#3F3D56"/>
<path d="M311.992 147.845C312.123 147.845 312.23 147.771 312.23 147.68C312.23 147.588 312.123 147.514 311.992 147.514C311.861 147.514 311.755 147.588 311.755 147.68C311.755 147.771 311.861 147.845 311.992 147.845Z" fill="#FF6584"/>
<path d="M306.476 145.797C306.494 145.667 306.435 145.551 306.345 145.539C306.255 145.526 306.167 145.622 306.149 145.751C306.131 145.881 306.19 145.997 306.28 146.009C306.371 146.022 306.458 145.926 306.476 145.797Z" fill="#E6E6E6"/>
<path d="M305.901 147.238C305.919 147.109 305.86 146.993 305.77 146.981C305.68 146.968 305.592 147.063 305.574 147.193C305.556 147.323 305.615 147.439 305.705 147.451C305.796 147.464 305.883 147.368 305.901 147.238Z" fill="#3F3D56"/>
<path d="M305.393 145.043C305.411 144.913 305.352 144.797 305.262 144.785C305.172 144.772 305.084 144.868 305.066 144.998C305.048 145.128 305.107 145.243 305.197 145.255C305.288 145.268 305.375 145.173 305.393 145.043Z" fill="#FF6584"/>
<path d="M309.055 145.012C309.072 144.883 309.014 144.767 308.923 144.755C308.833 144.742 308.745 144.837 308.728 144.967C308.71 145.097 308.768 145.213 308.859 145.225C308.949 145.238 309.037 145.142 309.055 145.012Z" fill="#E6E6E6"/>
<path d="M308.481 146.455C308.499 146.325 308.44 146.21 308.35 146.197C308.26 146.185 308.172 146.28 308.154 146.41C308.136 146.54 308.195 146.655 308.285 146.668C308.376 146.68 308.463 146.585 308.481 146.455Z" fill="#3F3D56"/>
<path d="M307.971 144.259C307.989 144.129 307.931 144.013 307.84 144.001C307.75 143.988 307.662 144.084 307.645 144.213C307.627 144.343 307.685 144.459 307.776 144.471C307.866 144.484 307.954 144.389 307.971 144.259Z" fill="#FF6584"/>
<path d="M309.754 143.417C309.772 143.287 309.713 143.171 309.623 143.159C309.533 143.146 309.445 143.242 309.427 143.371C309.409 143.501 309.468 143.617 309.558 143.629C309.649 143.642 309.736 143.546 309.754 143.417Z" fill="#3F3D56"/>
<path d="M309.244 141.22C309.262 141.09 309.204 140.975 309.113 140.963C309.023 140.95 308.935 141.045 308.917 141.175C308.9 141.305 308.958 141.421 309.048 141.433C309.139 141.445 309.226 141.35 309.244 141.22Z" fill="#FF6584"/>
<path d="M379 238.476C378.647 239.521 0.380425 238.849 0 237.806C0.352128 236.758 378.619 237.43 379 238.476Z" fill="#CCCCCC"/>
<path d="M147.189 184.143C140.549 184.143 135.166 178.755 135.166 172.108C135.166 165.461 140.549 160.073 147.189 160.073C153.829 160.073 159.211 165.461 159.211 172.108C159.211 178.755 153.829 184.143 147.189 184.143Z" fill="#E6E6E6"/>
<path d="M151.932 170.921H148.375V167.359C148.375 166.704 147.844 166.172 147.189 166.172C146.534 166.172 146.003 166.704 146.003 167.359V170.921H142.445C141.79 170.921 141.259 171.452 141.259 172.108C141.259 172.764 141.79 173.295 142.445 173.295H146.003V176.857C146.004 177.512 146.536 178.043 147.191 178.041C147.844 178.04 148.373 177.51 148.375 176.857V173.295H151.932C152.587 173.295 153.118 172.764 153.118 172.108C153.118 171.452 152.587 170.921 151.932 170.921V170.921Z" fill="white"/>
<path d="M182.363 184.143C175.723 184.143 170.341 178.755 170.341 172.108C170.341 165.461 175.723 160.073 182.363 160.073C189.003 160.073 194.386 165.461 194.386 172.108C194.386 178.755 189.003 184.143 182.363 184.143Z" fill="#E6E6E6"/>
<path d="M187.107 170.921H177.619C176.964 170.921 176.434 171.452 176.434 172.108C176.434 172.764 176.964 173.295 177.619 173.295H187.107C187.762 173.295 188.293 172.764 188.293 172.108C188.293 171.452 187.762 170.921 187.107 170.921Z" fill="white"/>
<path d="M217.538 184.143C210.898 184.143 205.515 178.755 205.515 172.108C205.515 165.461 210.898 160.073 217.538 160.073C224.178 160.073 229.561 165.461 229.561 172.108V172.108C229.561 178.755 224.178 184.143 217.538 184.143Z" fill="#0288D1"/>
<path d="M224.302 171.536L220.894 166.556C220.578 166.095 219.949 165.978 219.488 166.294C219.028 166.609 218.91 167.239 219.226 167.7L221.43 170.921H212.794C212.139 170.921 211.608 171.452 211.608 172.108C211.608 172.764 212.139 173.295 212.794 173.295H221.539L219.226 176.674C218.911 177.136 219.03 177.766 219.492 178.08C219.951 178.394 220.578 178.277 220.894 177.818L224.302 172.838C224.528 172.434 224.528 171.941 224.302 171.536H224.302Z" fill="white"/>
<path d="M130.211 41.7852H114.392C113.204 41.7852 112.241 42.7494 112.241 43.9387V43.9387C112.241 45.1281 113.204 46.0922 114.392 46.0922H130.211C131.399 46.0922 132.362 45.1281 132.362 43.9387C132.362 42.7494 131.399 41.7852 130.211 41.7852Z" fill="#0288D1"/>
<path d="M140.43 50.3992H104.174C102.986 50.3992 102.022 51.3633 102.022 52.5527V52.5527C102.022 53.742 102.986 54.7062 104.174 54.7062H140.43C141.618 54.7062 142.581 53.742 142.581 52.5527C142.581 51.3633 141.618 50.3992 140.43 50.3992Z" fill="#E6E6E6"/>
<path d="M140.43 59.0132H104.174C102.986 59.0132 102.022 59.9773 102.022 61.1667V61.1667C102.022 62.356 102.986 63.3201 104.174 63.3201H140.43C141.618 63.3201 142.581 62.356 142.581 61.1667C142.581 59.9773 141.618 59.0132 140.43 59.0132Z" fill="#E6E6E6"/>
<path d="M138.194 105.254H137.275V70.7351H71.7214V69.8152H138.194V105.254Z" fill="#E6E6E6"/>
<path d="M61.4788 80.378C68.5289 80.378 74.2442 74.6569 74.2442 67.5997C74.2442 60.5424 68.5289 54.8214 61.4788 54.8214C54.4287 54.8214 48.7134 60.5424 48.7134 67.5997C48.7134 74.6569 54.4287 80.378 61.4788 80.378Z" fill="#E6E6E6"/>
<path d="M59.7373 74.2502C59.2904 74.2502 58.8696 74.0395 58.6015 73.6815L55.1189 69.0333C54.6484 68.4053 54.7756 67.5143 55.4029 67.0434C56.0303 66.5724 56.9203 66.6997 57.3908 67.3277L59.6693 70.3684L65.5211 61.5819C65.9561 60.9287 66.8378 60.7522 67.4903 61.1877C68.1428 61.6231 68.3192 62.5057 67.8841 63.1589L60.919 73.6172C60.6633 74.001 60.2375 74.2368 59.7769 74.2497C59.7637 74.2499 59.7505 74.2502 59.7373 74.2502V74.2502Z" fill="white"/>
<path d="M224.782 103.434H223.863V67.9955H290.336V68.9154H224.782V103.434Z" fill="#E6E6E6"/>
<path d="M300.529 78.5583C307.579 78.5583 313.294 72.8372 313.294 65.78C313.294 58.7227 307.579 53.0017 300.529 53.0017C293.479 53.0017 287.764 58.7227 287.764 65.78C287.764 72.8372 293.479 78.5583 300.529 78.5583Z" fill="#E6E6E6"/>
<path d="M298.787 72.4305C298.34 72.4305 297.92 72.2198 297.652 71.8618L294.169 67.2136C293.697 66.5867 293.822 65.6955 294.448 65.223C295.074 64.7504 295.965 64.8755 296.437 65.5023L296.441 65.508L298.719 68.5487L304.571 59.7622C305.006 59.109 305.888 58.9325 306.54 59.368C307.193 59.8034 307.369 60.686 306.934 61.3392L299.969 71.7975C299.713 72.1813 299.288 72.4171 298.827 72.43C298.814 72.4302 298.801 72.4305 298.787 72.4305V72.4305Z" fill="white"/>
<path d="M141.847 109.332H131.861C131.592 109.332 130.114 108.549 130.114 107.584V102.031C130.066 97.8308 143.802 97.5559 143.854 102.031V107.584C143.854 108.549 142.811 109.332 141.847 109.332Z" fill="#E6E6E6"/>
<path d="M142.363 98.267C141.879 98.0935 141.364 98.0197 140.851 98.05C140.988 98.0045 141.114 97.9305 141.221 97.8328C141.127 97.829 141.034 97.8164 140.942 97.7952C140.842 97.7762 140.747 97.7337 140.665 97.6711C140.584 97.6066 140.54 97.5051 140.549 97.4013C140.568 97.2743 140.686 97.1697 140.674 97.042C140.66 96.8955 140.491 96.8242 140.401 96.7082C140.288 96.5286 140.307 96.2956 140.449 96.1373C140.535 96.0372 140.64 95.9554 140.758 95.8969C140.558 95.8456 140.349 95.8486 140.151 95.9057C140.363 95.7414 140.457 95.4668 140.391 95.2068C140.279 94.8832 140.013 94.6368 139.682 94.5497C139.356 94.4673 139.018 94.44 138.683 94.4689C138.968 94.3812 138.925 93.9342 138.707 93.7305C138.489 93.5267 138.177 93.4416 137.972 93.2253C137.767 93.0089 137.783 92.5472 138.079 92.5112L138.043 92.4058C137.453 92.1854 136.797 92.4852 136.577 93.0753C136.558 93.1258 136.543 93.1776 136.531 93.2303C136.477 93.5685 136.578 93.9426 136.408 94.2402C136.192 94.6196 135.668 94.6625 135.233 94.6204C134.807 94.5109 134.355 94.5727 133.973 94.7926C133.658 95.0556 133.615 95.5248 133.878 95.8405C134.024 96.0157 134.242 96.1144 134.47 96.1081C134.184 96.1101 133.899 96.1476 133.623 96.2199L133.889 96.3232C133.948 96.3416 134.003 96.3723 134.05 96.4134C134.096 96.4565 134.111 96.5244 134.085 96.5828C134.043 96.66 133.933 96.6574 133.846 96.6443L133.267 96.5571C133.382 96.5955 133.444 96.7202 133.406 96.8354C133.367 96.9507 133.243 97.0129 133.128 96.9745C133.098 96.9646 133.071 96.9486 133.048 96.9274C133.107 96.9969 133.155 97.0756 133.19 97.1605C133.224 97.2469 133.214 97.3445 133.163 97.4223C133.045 97.5303 132.872 97.5514 132.732 97.4748C132.684 97.4567 132.637 97.4356 132.589 97.4162C132.59 97.433 132.591 97.4498 132.593 97.4666C132.625 97.6893 132.749 97.8882 132.935 98.015C132.673 98.0456 132.431 98.173 132.257 98.3723C131.956 98.7469 131.938 99.2757 132.213 99.6702C131.921 99.5409 131.6 99.4878 131.282 99.5159C130.955 99.5562 130.71 99.8352 130.712 100.165C130.765 100.569 131.265 100.717 131.669 100.767C134.845 101.158 138.057 101.158 141.232 100.766C141.664 100.736 142.086 100.629 142.479 100.448C142.877 100.26 143.15 99.8809 143.204 99.4441C143.187 98.9177 142.855 98.4533 142.363 98.267V98.267Z" fill="#0288D1"/>
<path d="M144.721 102.947C144.648 102.632 144.368 102.41 144.046 102.412C143.739 102.42 143.464 102.639 143.163 102.591C142.913 102.551 142.716 102.333 142.464 102.366C142.234 102.397 142.11 102.622 141.938 102.743H141.496C141.324 102.608 141.24 102.333 141.001 102.257C140.642 102.141 140.354 102.546 139.978 102.618C139.76 102.642 139.54 102.6 139.347 102.497C139.157 102.394 138.952 102.325 138.739 102.291C138.547 102.263 138.357 102.346 138.248 102.507C138.26 102.392 138.111 102.279 137.96 102.272C137.791 102.278 137.626 102.329 137.483 102.419C137.339 102.509 137.173 102.557 137.003 102.557C136.628 102.524 136.443 102.084 136.066 102.079C135.59 102.073 135.4 102.752 134.929 102.694C134.685 102.664 134.553 102.441 134.335 102.346C134.103 102.275 133.856 102.273 133.624 102.339L132.511 102.548C132.185 102.638 131.841 102.641 131.514 102.558C131.275 102.471 131.043 102.284 130.797 102.355C130.583 102.417 130.478 102.658 130.251 102.67C130.106 102.652 129.967 102.604 129.841 102.53C129.6 102.444 129.332 102.512 129.161 102.701C129.036 103.209 129.016 103.737 129.102 104.253C129.098 104.363 129.107 104.473 129.128 104.581L130.246 109.063C130.378 109.75 130.717 110.247 131.417 110.247H142.291C142.99 110.247 143.59 109.75 143.722 109.063L144.841 104.581C144.843 104.569 144.844 104.558 144.846 104.546C144.873 104.01 144.831 103.472 144.721 102.947V102.947Z" fill="#CCCCCC"/>
<path opacity="0.2" d="M131.425 102.609L131.643 105.438C131.715 106.381 131.608 107.311 131.681 108.254C131.721 108.785 131.942 109.329 131.983 109.86C131.988 109.923 132.086 109.923 132.081 109.86L131.863 107.032L131.646 104.203L131.523 102.609C131.519 102.547 131.421 102.546 131.425 102.609V102.609Z" fill="black"/>
<path opacity="0.2" d="M133.314 102.721L133.399 105.509L133.483 108.297L133.531 109.862C133.533 109.925 133.631 109.925 133.629 109.862L133.544 107.074L133.459 104.286L133.412 102.721C133.41 102.658 133.312 102.658 133.314 102.721Z" fill="black"/>
<path opacity="0.2" d="M135.143 102.889L135.118 105.583L135.092 108.26L135.078 109.779C135.078 109.806 135.101 109.827 135.128 109.826C135.154 109.825 135.175 109.805 135.175 109.779L135.201 107.085L135.227 104.407L135.241 102.889C135.24 102.862 135.218 102.84 135.191 102.841C135.165 102.842 135.144 102.863 135.143 102.889Z" fill="black"/>
<path opacity="0.2" d="M136.526 102.806L136.579 105.534L136.632 108.245L136.663 109.78C136.663 109.807 136.686 109.828 136.713 109.827C136.739 109.826 136.76 109.805 136.76 109.78L136.707 107.052L136.654 104.341L136.623 102.806C136.623 102.779 136.6 102.758 136.573 102.759C136.547 102.76 136.526 102.78 136.526 102.806Z" fill="black"/>
<path opacity="0.2" d="M138.54 102.694L138.601 105.494L138.662 108.294L138.697 109.862C138.698 109.889 138.72 109.91 138.747 109.909C138.773 109.908 138.794 109.888 138.794 109.862L138.733 107.062L138.672 104.262L138.638 102.694C138.637 102.667 138.614 102.646 138.587 102.647C138.561 102.648 138.541 102.669 138.54 102.694Z" fill="black"/>
<path opacity="0.2" d="M140.212 102.779L140.425 105.6L140.638 108.414L140.758 109.999C140.763 110.062 140.861 110.062 140.856 109.999L140.643 107.178L140.43 104.365L140.31 102.779C140.305 102.717 140.207 102.716 140.212 102.779Z" fill="black"/>
<path opacity="0.2" d="M142.07 103.108L142.199 105.689C142.242 106.55 142.023 107.41 142.066 108.271L142.139 109.72C142.142 109.783 142.24 109.783 142.236 109.72C142.194 108.86 142.412 107.999 142.369 107.139L142.24 104.557L142.168 103.108C142.165 103.045 142.067 103.045 142.07 103.108V103.108Z" fill="black"/>
<path d="M136.397 96.0354C136.604 96.0354 136.772 95.9184 136.772 95.7741C136.772 95.6297 136.604 95.5127 136.397 95.5127C136.189 95.5127 136.021 95.6297 136.021 95.7741C136.021 95.9184 136.189 96.0354 136.397 96.0354Z" fill="#E6E6E6"/>
<path d="M138.779 96.6235C138.986 96.6235 139.154 96.5065 139.154 96.3621C139.154 96.2178 138.986 96.1008 138.779 96.1008C138.572 96.1008 138.404 96.2178 138.404 96.3621C138.404 96.5065 138.572 96.6235 138.779 96.6235Z" fill="#3F3D56"/>
<path d="M135.45 97.8976C135.657 97.8976 135.825 97.7806 135.825 97.6363C135.825 97.4919 135.657 97.3749 135.45 97.3749C135.243 97.3749 135.075 97.4919 135.075 97.6363C135.075 97.7806 135.243 97.8976 135.45 97.8976Z" fill="#FF6584"/>
<path d="M138.554 98.2421C138.685 98.2421 138.791 98.1681 138.791 98.0769C138.791 97.9857 138.685 97.9117 138.554 97.9117C138.423 97.9117 138.317 97.9857 138.317 98.0769C138.317 98.1681 138.423 98.2421 138.554 98.2421Z" fill="#E6E6E6"/>
<path d="M140.06 98.6138C140.191 98.6138 140.297 98.5398 140.297 98.4486C140.297 98.3574 140.191 98.2834 140.06 98.2834C139.929 98.2834 139.822 98.3574 139.822 98.4486C139.822 98.5398 139.929 98.6138 140.06 98.6138Z" fill="#3F3D56"/>
<path d="M137.956 99.419C138.087 99.419 138.193 99.3451 138.193 99.2538C138.193 99.1626 138.087 99.0887 137.956 99.0887C137.825 99.0887 137.718 99.1626 137.718 99.2538C137.718 99.3451 137.825 99.419 137.956 99.419Z" fill="#FF6584"/>
<path d="M140.773 99.1569C140.904 99.1569 141.01 99.0829 141.01 98.9917C141.01 98.9005 140.904 98.8265 140.773 98.8265C140.642 98.8265 140.536 98.9005 140.536 98.9917C140.536 99.0829 140.642 99.1569 140.773 99.1569Z" fill="#E6E6E6"/>
<path d="M142.279 99.5285C142.41 99.5285 142.516 99.4546 142.516 99.3634C142.516 99.2721 142.41 99.1982 142.279 99.1982C142.148 99.1982 142.042 99.2721 142.042 99.3634C142.042 99.4546 142.148 99.5285 142.279 99.5285Z" fill="#3F3D56"/>
<path d="M140.175 100.334C140.306 100.334 140.412 100.26 140.412 100.169C140.412 100.077 140.306 100.003 140.175 100.003C140.044 100.003 139.938 100.077 139.938 100.169C139.938 100.26 140.044 100.334 140.175 100.334Z" fill="#FF6584"/>
<path d="M134.659 98.2856C134.677 98.1557 134.618 98.0403 134.528 98.0278C134.437 98.0154 134.35 98.1106 134.332 98.2405C134.314 98.3704 134.373 98.4858 134.463 98.4983C134.553 98.5107 134.641 98.4155 134.659 98.2856Z" fill="#E6E6E6"/>
<path d="M134.085 99.728C134.103 99.5981 134.045 99.4827 133.954 99.4703C133.864 99.4578 133.776 99.553 133.758 99.6829C133.741 99.8128 133.799 99.9282 133.89 99.9407C133.98 99.9531 134.068 99.8579 134.085 99.728Z" fill="#3F3D56"/>
<path d="M133.576 97.5318C133.594 97.4019 133.535 97.2864 133.445 97.274C133.354 97.2615 133.267 97.3568 133.249 97.4867C133.231 97.6166 133.289 97.732 133.38 97.7444C133.47 97.7569 133.558 97.6617 133.576 97.5318Z" fill="#FF6584"/>
<path d="M137.237 97.5015C137.255 97.3716 137.196 97.2562 137.106 97.2438C137.016 97.2313 136.928 97.3265 136.91 97.4564C136.892 97.5863 136.951 97.7017 137.041 97.7142C137.131 97.7266 137.219 97.6314 137.237 97.5015Z" fill="#E6E6E6"/>
<path d="M136.664 98.9439C136.682 98.814 136.623 98.6986 136.533 98.6862C136.442 98.6737 136.355 98.7689 136.337 98.8988C136.319 99.0287 136.378 99.1442 136.468 99.1566C136.558 99.1691 136.646 99.0738 136.664 98.9439Z" fill="#3F3D56"/>
<path d="M136.154 96.7477C136.172 96.6178 136.113 96.5024 136.023 96.4899C135.933 96.4775 135.845 96.5727 135.827 96.7026C135.809 96.8325 135.868 96.9479 135.958 96.9604C136.048 96.9728 136.136 96.8776 136.154 96.7477Z" fill="#FF6584"/>
<path d="M137.936 95.9051C137.953 95.7752 137.895 95.6598 137.804 95.6474C137.714 95.6349 137.626 95.7301 137.609 95.8601C137.591 95.99 137.649 96.1054 137.74 96.1178C137.83 96.1303 137.918 96.0351 137.936 95.9051Z" fill="#3F3D56"/>
<path d="M137.427 93.7093C137.445 93.5794 137.386 93.464 137.296 93.4516C137.205 93.4391 137.118 93.5343 137.1 93.6643C137.082 93.7942 137.141 93.9096 137.231 93.922C137.321 93.9345 137.409 93.8393 137.427 93.7093Z" fill="#FF6584"/>
<path d="M229.805 107.393H219.819C219.55 107.393 218.072 106.61 218.072 105.644V100.091C218.024 95.8911 231.76 95.6162 231.812 100.091V105.644C231.812 106.61 230.769 107.393 229.805 107.393V107.393Z" fill="#E6E6E6"/>
<path d="M230.321 96.3273C229.837 96.1538 229.322 96.08 228.809 96.1103C228.946 96.0648 229.072 95.9908 229.179 95.8931C229.085 95.8893 228.992 95.8767 228.9 95.8555C228.8 95.8365 228.705 95.794 228.623 95.7313C228.542 95.6669 228.498 95.5654 228.507 95.4616C228.526 95.3346 228.644 95.23 228.632 95.1022C228.618 94.9558 228.449 94.8845 228.359 94.7684C228.246 94.5888 228.265 94.3559 228.407 94.1975C228.493 94.0975 228.598 94.0157 228.716 93.9571C228.516 93.9058 228.307 93.9089 228.109 93.9659C228.321 93.8017 228.415 93.527 228.349 93.2671C228.237 92.9435 227.971 92.697 227.64 92.6099C227.314 92.5276 226.976 92.5003 226.641 92.5291C226.926 92.4415 226.883 91.9945 226.665 91.7907C226.447 91.5869 226.135 91.5018 225.93 91.2855C225.725 91.0692 225.741 90.6074 226.037 90.5715L226.001 90.4661C225.411 90.2457 224.755 90.5455 224.535 91.1356C224.516 91.1861 224.501 91.2379 224.489 91.2905C224.435 91.6288 224.536 92.0029 224.366 92.3004C224.15 92.6798 223.626 92.7228 223.191 92.6807C222.765 92.5712 222.313 92.633 221.931 92.8529C221.616 93.1159 221.573 93.585 221.836 93.9008C221.982 94.076 222.2 94.1746 222.427 94.1683C222.142 94.1703 221.857 94.2079 221.581 94.2802L221.847 94.3835C221.906 94.4018 221.961 94.4326 222.007 94.4737C222.054 94.5167 222.069 94.5847 222.043 94.643C222.001 94.7203 221.891 94.7177 221.804 94.7045L221.225 94.6173C221.34 94.6558 221.402 94.7804 221.364 94.8957C221.325 95.0109 221.201 95.0732 221.085 95.0348C221.056 95.0249 221.029 95.0089 221.006 94.9877C221.065 95.0572 221.113 95.1359 221.147 95.2207C221.181 95.3072 221.171 95.4048 221.121 95.4826C221.003 95.5906 220.83 95.6117 220.689 95.5351C220.642 95.517 220.595 95.4958 220.547 95.4765C220.548 95.4933 220.549 95.5101 220.551 95.5269C220.583 95.7495 220.707 95.9485 220.893 96.0753C220.63 96.1059 220.389 96.2333 220.215 96.4326C219.914 96.8072 219.896 97.336 220.171 97.7305C219.878 97.6012 219.558 97.5481 219.24 97.5762C218.913 97.6165 218.668 97.8955 218.67 98.2253C218.723 98.6293 219.223 98.777 219.627 98.8271C222.803 99.2183 226.015 99.218 229.19 98.8259C229.622 98.7967 230.044 98.6891 230.437 98.5084C230.835 98.3201 231.108 97.9412 231.162 97.5043C231.145 96.978 230.813 96.5136 230.321 96.3273V96.3273Z" fill="#0288D1"/>
<path d="M232.679 101.007C232.606 100.693 232.326 100.47 232.004 100.472C231.697 100.48 231.422 100.699 231.121 100.651C230.871 100.612 230.674 100.393 230.422 100.426C230.192 100.457 230.068 100.682 229.896 100.804H229.454C229.282 100.668 229.198 100.394 228.959 100.317C228.6 100.201 228.312 100.607 227.936 100.678C227.718 100.703 227.498 100.661 227.305 100.558C227.115 100.455 226.91 100.385 226.697 100.352C226.505 100.323 226.315 100.407 226.206 100.567C226.218 100.452 226.069 100.34 225.918 100.333C225.749 100.339 225.584 100.389 225.441 100.48C225.297 100.57 225.131 100.617 224.962 100.617C224.586 100.584 224.401 100.145 224.024 100.14C223.548 100.134 223.358 100.812 222.887 100.754C222.643 100.724 222.511 100.502 222.293 100.407C222.061 100.336 221.814 100.333 221.582 100.4L220.469 100.608C220.143 100.698 219.799 100.702 219.472 100.618C219.233 100.532 219.001 100.344 218.755 100.416C218.541 100.478 218.436 100.718 218.209 100.73C218.064 100.712 217.925 100.664 217.799 100.59C217.558 100.505 217.29 100.572 217.119 100.762C216.994 101.269 216.974 101.797 217.06 102.313C217.056 102.423 217.065 102.533 217.085 102.641L218.204 107.123C218.336 107.81 218.675 108.307 219.374 108.307H230.249C230.948 108.307 231.548 107.81 231.68 107.123L232.799 102.641C232.801 102.63 232.802 102.618 232.804 102.607C232.831 102.07 232.789 101.533 232.679 101.007V101.007Z" fill="#CCCCCC"/>
<path opacity="0.2" d="M219.384 100.67L219.601 103.499C219.673 104.442 219.566 105.371 219.639 106.314C219.679 106.845 219.9 107.39 219.941 107.921C219.946 107.983 220.044 107.984 220.039 107.921L219.821 105.092L219.604 102.263L219.481 100.67C219.477 100.607 219.379 100.607 219.384 100.67V100.67Z" fill="black"/>
<path opacity="0.2" d="M221.272 100.782L221.357 103.569L221.441 106.357L221.489 107.922C221.491 107.985 221.589 107.985 221.587 107.922L221.502 105.134L221.417 102.347L221.37 100.782C221.368 100.719 221.27 100.719 221.272 100.782Z" fill="black"/>
<path opacity="0.2" d="M223.101 100.949L223.076 103.643L223.05 106.321L223.036 107.839C223.036 107.866 223.059 107.887 223.086 107.887C223.112 107.886 223.133 107.865 223.133 107.839L223.159 105.145L223.185 102.467L223.199 100.949C223.198 100.922 223.176 100.901 223.149 100.902C223.123 100.903 223.102 100.923 223.101 100.949Z" fill="black"/>
<path opacity="0.2" d="M224.484 100.867L224.537 103.594L224.59 106.305L224.621 107.84C224.622 107.867 224.644 107.888 224.671 107.887C224.697 107.886 224.718 107.866 224.719 107.84L224.665 105.113L224.612 102.402L224.581 100.867C224.581 100.839 224.558 100.818 224.531 100.819C224.505 100.82 224.484 100.841 224.484 100.867Z" fill="black"/>
<path opacity="0.2" d="M226.498 100.755L226.559 103.555L226.62 106.355L226.655 107.922C226.656 107.949 226.678 107.97 226.705 107.969C226.731 107.968 226.752 107.948 226.753 107.922L226.691 105.122L226.63 102.322L226.596 100.755C226.595 100.727 226.572 100.706 226.545 100.707C226.519 100.708 226.499 100.729 226.498 100.755Z" fill="black"/>
<path opacity="0.2" d="M228.17 100.839L228.383 103.661L228.596 106.474L228.716 108.059C228.721 108.122 228.819 108.122 228.814 108.059L228.601 105.238L228.388 102.425L228.268 100.839C228.263 100.777 228.165 100.776 228.17 100.839Z" fill="black"/>
<path opacity="0.2" d="M230.028 101.168L230.157 103.75C230.2 104.61 229.981 105.471 230.024 106.331L230.097 107.781C230.1 107.843 230.198 107.844 230.195 107.781C230.152 106.92 230.37 106.06 230.327 105.199L230.198 102.618L230.126 101.168C230.123 101.105 230.025 101.105 230.028 101.168Z" fill="black"/>
<path d="M224.355 94.0957C224.562 94.0957 224.73 93.9787 224.73 93.8344C224.73 93.69 224.562 93.573 224.355 93.573C224.147 93.573 223.979 93.69 223.979 93.8344C223.979 93.9787 224.147 94.0957 224.355 94.0957Z" fill="#E6E6E6"/>
<path d="M226.737 94.6838C226.944 94.6838 227.113 94.5668 227.113 94.4224C227.113 94.2781 226.944 94.1611 226.737 94.1611C226.53 94.1611 226.362 94.2781 226.362 94.4224C226.362 94.5668 226.53 94.6838 226.737 94.6838Z" fill="#3F3D56"/>
<path d="M223.408 95.9579C223.615 95.9579 223.784 95.8409 223.784 95.6966C223.784 95.5522 223.615 95.4352 223.408 95.4352C223.201 95.4352 223.033 95.5522 223.033 95.6966C223.033 95.8409 223.201 95.9579 223.408 95.9579Z" fill="#FF6584"/>
<path d="M226.512 96.3024C226.643 96.3024 226.749 96.2284 226.749 96.1372C226.749 96.046 226.643 95.972 226.512 95.972C226.381 95.972 226.275 96.046 226.275 96.1372C226.275 96.2284 226.381 96.3024 226.512 96.3024Z" fill="#E6E6E6"/>
<path d="M228.018 96.6741C228.149 96.6741 228.255 96.6001 228.255 96.5089C228.255 96.4177 228.149 96.3437 228.018 96.3437C227.887 96.3437 227.78 96.4177 227.78 96.5089C227.78 96.6001 227.887 96.6741 228.018 96.6741Z" fill="#3F3D56"/>
<path d="M225.914 97.4793C226.045 97.4793 226.151 97.4054 226.151 97.3142C226.151 97.2229 226.045 97.149 225.914 97.149C225.783 97.149 225.676 97.2229 225.676 97.3142C225.676 97.4054 225.783 97.4793 225.914 97.4793Z" fill="#FF6584"/>
<path d="M228.731 97.2172C228.862 97.2172 228.968 97.1432 228.968 97.052C228.968 96.9608 228.862 96.8868 228.731 96.8868C228.6 96.8868 228.494 96.9608 228.494 97.052C228.494 97.1432 228.6 97.2172 228.731 97.2172Z" fill="#E6E6E6"/>
<path d="M230.237 97.5888C230.368 97.5888 230.474 97.5149 230.474 97.4237C230.474 97.3324 230.368 97.2585 230.237 97.2585C230.106 97.2585 230 97.3324 230 97.4237C230 97.5149 230.106 97.5888 230.237 97.5888Z" fill="#3F3D56"/>
<path d="M228.133 98.3941C228.264 98.3941 228.37 98.3201 228.37 98.2289C228.37 98.1377 228.264 98.0637 228.133 98.0637C228.002 98.0637 227.896 98.1377 227.896 98.2289C227.896 98.3201 228.002 98.3941 228.133 98.3941Z" fill="#FF6584"/>
<path d="M222.617 96.3459C222.635 96.216 222.576 96.1006 222.486 96.0881C222.395 96.0757 222.308 96.1709 222.29 96.3008C222.272 96.4307 222.331 96.5461 222.421 96.5586C222.511 96.571 222.599 96.4758 222.617 96.3459Z" fill="#E6E6E6"/>
<path d="M222.043 97.7883C222.061 97.6584 222.003 97.543 221.912 97.5306C221.822 97.5181 221.734 97.6133 221.716 97.7432C221.699 97.8732 221.757 97.9886 221.848 98.001C221.938 98.0135 222.026 97.9183 222.043 97.7883Z" fill="#3F3D56"/>
<path d="M221.534 95.5921C221.552 95.4622 221.493 95.3468 221.403 95.3343C221.312 95.3218 221.225 95.4171 221.207 95.547C221.189 95.6769 221.248 95.7923 221.338 95.8048C221.428 95.8172 221.516 95.722 221.534 95.5921Z" fill="#FF6584"/>
<path d="M225.195 95.5618C225.213 95.4319 225.154 95.3165 225.064 95.304C224.974 95.2916 224.886 95.3868 224.868 95.5167C224.85 95.6466 224.909 95.762 224.999 95.7745C225.09 95.787 225.177 95.6917 225.195 95.5618Z" fill="#E6E6E6"/>
<path d="M224.622 97.0043C224.64 96.8744 224.581 96.759 224.491 96.7465C224.4 96.734 224.313 96.8293 224.295 96.9592C224.277 97.0891 224.336 97.2045 224.426 97.217C224.516 97.2294 224.604 97.1342 224.622 97.0043Z" fill="#3F3D56"/>
<path d="M224.112 94.808C224.13 94.678 224.071 94.5626 223.981 94.5502C223.891 94.5377 223.803 94.633 223.785 94.7629C223.767 94.8928 223.826 95.0082 223.916 95.0207C224.006 95.0331 224.094 94.9379 224.112 94.808Z" fill="#FF6584"/>
<path d="M225.893 93.9655C225.911 93.8356 225.852 93.7202 225.762 93.7077C225.672 93.6953 225.584 93.7905 225.566 93.9204C225.548 94.0503 225.607 94.1657 225.697 94.1782C225.788 94.1906 225.875 94.0954 225.893 93.9655Z" fill="#3F3D56"/>
<path d="M225.385 91.7697C225.403 91.6397 225.344 91.5243 225.254 91.5119C225.164 91.4994 225.076 91.5947 225.058 91.7246C225.04 91.8545 225.099 91.9699 225.189 91.9824C225.279 91.9948 225.367 91.8996 225.385 91.7697Z" fill="#FF6584"/>
</g>
<defs>
<clipPath id="clip0_1_1425">
<rect width="379" height="239" fill="white"/>
</clipPath>
</defs>
</svg>
